# xmcd
#
# Track frame offsets:
#	150
#	13823
#	24565
#	36106
#	47965
#	61610
#	73917
#	86974
#	100144
#	113432
#	126096
#	137731
#	150115
#
# Disc length: 2160 seconds
#
# Revision: 0
# Processed by: cddbd v1.5.2PL0 Copyright (c) Steve Scherf et al.
# Submitted via: FairStars CD Ripper 1.90
#
DISCID=a5086e0d
DTITLE=The Supremes - 3CD Playlist and Plus [CD 1 of 3)
DYEAR=2008
DGENRE=R&B
TTITLE0=When the Lovelight Starts Shining Through His Eyes
TTITLE1=A Breath Taking Guy
TTITLE2=Where Did Our Love Go
TTITLE3=Baby Love
TTITLE4=Ask Any Girl
TTITLE5=Come See About Me
TTITLE6=Stop! in the Name of Love
TTITLE7=Back in My Arms Again
TTITLE8=Nothing but Heartaches
TTITLE9=Beach Ball
TTITLE10=Ain't That Good News
TTITLE11=What a Wonderful World
TTITLE12=I Hear a Symphony
EXTD=YEAR: 2008
EXTT0=
EXTT1=
EXTT2=
EXTT3=
EXTT4=
EXTT5=
EXTT6=
EXTT7=
EXTT8=
EXTT9=
EXTT10=
EXTT11=
EXTT12=
PLAYORDER=
